<?xml version="1.0" standalone="no"?>
<!DOCTYPE svg PUBLIC "-//W3C//DTD SVG 20010904//EN"
 "http://www.w3.org/TR/2001/REC-SVG-20010904/DTD/svg10.dtd">
<svg version="1.0" xmlns="http://www.w3.org/2000/svg"
 width="224.000000pt" height="225.000000pt" viewBox="0 0 224.000000 225.000000"
 preserveAspectRatio="xMidYMid meet">

<g transform="translate(0.000000,225.000000) scale(0.100000,-0.100000)"
fill="#000000" stroke="none">
<path d="M0 1125 l0 -1125 1120 0 1120 0 0 1125 0 1125 -1120 0 -1120 0 0
-1125z m960 268 l164 -161 506 504 505 503 50 -49 50 -50 -505 -505 -505 -505
503 -503 c276 -276 502 -506 502 -512 0 -13 -82 -95 -95 -95 -5 0 -236 226
-512 502 l-503 503 -503 -503 c-276 -276 -506 -502 -512 -502 -13 0 -95 82
-95 95 0 5 226 236 502 512 l503 503 -505 505 -505 505 50 50 50 50 345 -343
c190 -189 419 -416 510 -504z m-98 590 l258 -258 258 258 257 257 50 -50 50
-50 -310 -310 -310 -310 -310 310 -310 310 50 50 c27 27 52 50 55 50 2 0 121
-116 262 -257z m307 186 l54 -51 -56 -56 -57 -57 -55 55 -55 54 52 53 c29 29
55 53 58 53 3 0 29 -23 59 -51z m263 -1746 l308 -308 -47 -47 c-26 -27 -52
-48 -58 -48 -5 0 -123 113 -262 252 l-253 252 -37 -34 c-20 -19 -135 -132
-256 -250 -120 -118 -220 -217 -223 -219 -2 -3 -27 17 -54 44 l-50 50 307 307
c169 170 310 308 313 308 3 0 143 -138 312 -307z m-264 -256 l52 -53 -55 -54
-55 -54 -55 54 -55 54 52 53 c29 29 55 53 58 53 3 0 29 -24 58 -53z"/>
</g>
</svg>
